<?xml version="1.0" encoding="UTF-8" standalone="no"?>
<!DOCTYPE svg PUBLIC "-//W3C//DTD SVG 1.1//EN" "http://www.w3.org/Graphics/SVG/1.1/DTD/svg11.dtd">
<svg xmlns="http://www.w3.org/2000/svg" version="1.1" viewBox="0.00 0.00 254.00 50.00">
<path fill="#1da8b5" d="
  M 24.99 6.44
  Q 25.52 5.74 25.77 6.59
  C 26.43 8.77 27.44 13.42 24.35 14.21
  Q 23.77 14.36 23.46 13.85
  Q 21.65 10.87 24.99 6.44
  Z"
/>
<path fill="#6eab36" d="
  M 29.71 6.21
  Q 32.93 9.86 31.89 13.32
  A 1.30 1.30 0.0 0 1 29.93 14.04
  C 27.72 12.57 28.64 8.47 29.29 6.30
  Q 29.42 5.87 29.71 6.21
  Z"
/>
<path fill="#6eab36" d="
  M 33.70 10.13
  Q 34.60 7.58 36.89 6.13
  Q 37.23 5.92 37.27 6.32
  C 37.44 8.03 37.01 11.81 34.72 11.67
  A 1.16 1.16 0.0 0 1 33.70 10.13
  Z"
/>
<path fill="#1da8b5" d="
  M 19.11 6.82
  Q 20.96 8.37 21.28 10.61
  A 1.05 1.05 0.0 0 1 19.75 11.68
  Q 17.90 10.70 17.66 7.56
  Q 17.50 5.47 19.11 6.82
  Z"
/>
<path fill="#1da8b5" d="
  M 14.09 10.63
  Q 14.05 10.39 14.26 10.50
  Q 17.72 12.35 21.08 13.80
  Q 23.57 14.88 24.50 17.65
  Q 24.72 18.29 24.08 18.54
  C 18.86 20.61 14.99 15.49 14.09 10.63
  Z
  M 23.0466 17.8723
  A 2.34 0.24 29.5 0 0 21.1282 16.5111
  A 2.34 0.24 29.5 0 0 18.9734 15.5677
  A 2.34 0.24 29.5 0 0 20.8918 16.9289
  A 2.34 0.24 29.5 0 0 23.0466 17.8723
  Z"
/>
<path fill="#6eab36" d="
  M 30.98 16.41
  C 32.91 12.78 37.78 13.15 40.49 10.55
  Q 41.00 10.06 40.86 10.76
  Q 39.24 18.80 32.56 18.97
  Q 29.58 19.04 30.98 16.41
  Z
  M 32.54 17.34
  Q 31.72 17.99 32.70 17.64
  Q 33.73 17.28 34.68 16.57
  Q 35.36 16.07 34.55 16.31
  Q 33.43 16.65 32.54 17.34
  Z"
/>
<path fill="#007e85" d="
  M 26.29 17.97
  L 25.74 16.15
  A 1.25 1.25 0.0 0 1 26.05 14.91
  L 26.63 14.33
  A 1.25 1.25 0.0 0 1 28.55 14.51
  L 29.09 15.29
  A 1.25 1.25 0.0 0 1 29.24 16.42
  L 28.66 18.03
  A 1.25 1.25 0.0 0 1 26.29 17.97
  Z"
/>
<rect fill="#007e85" x="-1.87" y="-9.63" transform="translate(132.12,24.87) rotate(-0.1)" width="3.74" height="19.26" rx="0.39"/>
<path fill="#007e85" d="
  M 160.62 22.47
  C 165.12 18.49 171.88 20.33 171.64 27.21
  Q 171.53 30.45 171.62 34.08
  A 0.42 0.41 -1.4 0 1 171.21 34.50
  L 168.51 34.51
  Q 168.00 34.51 168.00 34.00
  L 168.00 27.31
  Q 168.00 23.82 164.51 23.60
  Q 164.14 23.58 163.77 23.64
  Q 160.25 24.22 160.25 27.80
  L 160.25 34.00
  Q 160.25 34.50 159.75 34.50
  L 157.00 34.50
  Q 156.50 34.50 156.50 34.00
  L 156.50 15.50
  Q 156.50 15.26 156.75 15.26
  L 159.81 15.25
  Q 160.12 15.25 160.12 15.56
  L 160.09 22.23
  A 0.32 0.32 0.0 0 0 160.62 22.47
  Z"
/>
<path fill="#007e85" d="
  M 67.49 27.59
  L 67.50 34.17
  A 0.33 0.33 0.0 0 1 67.17 34.50
  L 63.98 34.50
  A 0.33 0.33 0.0 0 1 63.65 34.17
  L 63.67 16.58
  A 0.33 0.33 0.0 0 1 64.00 16.25
  L 67.17 16.25
  A 0.33 0.33 0.0 0 1 67.50 16.58
  L 67.49 23.42
  A 0.33 0.33 0.0 0 0 67.82 23.75
  L 77.67 23.75
  A 0.33 0.33 0.0 0 0 78.00 23.42
  L 78.01 16.59
  A 0.33 0.33 0.0 0 1 78.34 16.26
  L 81.50 16.24
  A 0.33 0.33 0.0 0 1 81.83 16.57
  L 81.86 34.16
  A 0.33 0.33 0.0 0 1 81.53 34.49
  L 78.33 34.50
  A 0.33 0.33 0.0 0 1 78.00 34.17
  L 78.00 27.56
  A 0.33 0.33 0.0 0 0 77.67 27.23
  L 67.82 27.26
  A 0.33 0.33 0.0 0 0 67.49 27.59
  Z"
/>
<path fill="#1da8b5" d="
  M 14.34 16.65
  L 15.95 17.86
  A 0.37 0.37 0.0 0 1 15.80 18.52
  L 12.85 19.03
  A 0.37 0.37 0.0 0 1 12.54 18.94
  L 10.49 17.08
  A 0.37 0.37 0.0 0 1 10.75 16.44
  L 14.14 16.58
  A 0.37 0.37 0.0 0 1 14.34 16.65
  Z"
/>
<path fill="#6eab36" d="
  M 40.01 18.69
  Q 39.68 18.76 39.37 18.64
  A 0.64 0.63 -50.2 0 1 39.27 17.51
  Q 41.64 16.04 44.43 16.52
  Q 44.70 16.56 44.56 16.80
  Q 42.93 19.68 40.44 18.73
  Q 40.23 18.64 40.01 18.69
  Z"
/>
<path fill="#007e85" d="
  M 142.40 23.99
  L 139.23 24.00
  A 0.36 0.36 0.0 0 1 138.87 23.64
  L 138.90 21.12
  A 0.36 0.36 0.0 0 1 139.26 20.76
  L 142.42 20.75
  A 0.36 0.36 0.0 0 0 142.77 20.39
  L 142.73 16.98
  A 0.36 0.36 0.0 0 1 143.10 16.61
  L 146.03 16.69
  A 0.36 0.36 0.0 0 1 146.38 17.06
  L 146.30 20.39
  A 0.36 0.36 0.0 0 0 146.66 20.76
  L 150.52 20.74
  A 0.36 0.36 0.0 0 1 150.88 21.10
  L 150.88 23.64
  A 0.36 0.36 0.0 0 1 150.52 24.00
  L 146.73 23.99
  A 0.36 0.36 0.0 0 0 146.37 24.35
  L 146.30 34.14
  A 0.36 0.36 0.0 0 1 145.94 34.50
  L 143.11 34.49
  A 0.36 0.36 0.0 0 1 142.75 34.13
  L 142.76 24.35
  A 0.36 0.36 0.0 0 0 142.40 23.99
  Z"
/>
<path fill="#007e85" d="
  M 32.34 22.35
  C 29.72 23.30 28.52 26.18 29.66 28.76
  C 30.47 30.59 31.22 32.75 30.50 34.76
  Q 28.72 39.69 28.13 44.83
  Q 28.08 45.31 27.66 45.54
  Q 27.54 45.60 27.40 45.58
  Q 26.96 45.50 26.92 45.06
  Q 26.39 40.17 24.68 35.37
  C 23.90 33.19 24.15 31.31 25.14 29.30
  C 28.36 22.76 20.24 21.32 16.06 21.07
  Q 15.01 21.00 14.09 20.53
  Q 13.07 20.00 14.21 20.07
  C 18.06 20.31 22.28 20.59 26.14 20.19
  Q 27.89 20.01 29.64 20.17
  Q 35.08 20.64 40.95 19.95
  Q 41.93 19.84 41.13 20.41
  Q 40.50 20.87 39.74 20.93
  Q 35.07 21.35 32.34 22.35
  Z"
/>
<path fill="#1da8b5" d="
  M 11.99 23.53
  Q 8.73 24.66 6.22 21.58
  Q 5.88 21.16 6.40 21.00
  C 8.12 20.46 12.28 20.13 12.47 22.80
  A 0.72 0.72 0.0 0 1 11.99 23.53
  Z"
/>
<path fill="#6eab36" d="
  M 48.85 21.63
  C 47.45 23.11 45.38 24.42 43.32 23.70
  A 1.23 1.23 0.0 0 1 43.09 21.49
  Q 45.61 19.97 48.69 21.00
  Q 49.26 21.19 48.85 21.63
  Z"
/>
<path fill="#007e85" d="
  M 92.42 28.54
  Q 87.68 28.47 91.88 30.64
  Q 95.98 32.77 100.23 30.61
  Q 100.77 30.33 101.11 30.83
  L 101.97 32.12
  Q 102.42 32.78 101.71 33.14
  C 97.43 35.28 91.30 35.71 87.85 31.91
  Q 85.43 29.26 86.59 25.58
  C 87.90 21.41 92.90 20.00 96.81 20.64
  Q 100.60 21.26 102.33 24.69
  Q 102.53 25.10 102.68 25.39
  Q 104.37 28.75 100.62 28.68
  Q 96.46 28.60 92.42 28.54
  Z
  M 90.22 26.15
  L 99.22 26.17
  A 0.16 0.16 0.0 0 0 99.38 26.01
  L 99.38 25.92
  A 4.51 2.35 0.1 0 0 94.87 23.56
  L 94.57 23.56
  A 4.51 2.35 0.1 0 0 90.06 25.90
  L 90.06 25.99
  A 0.16 0.16 0.0 0 0 90.22 26.15
  Z"
/>
<path fill="#007e85" d="
  M 119.74 21.56
  L 119.80 21.08
  Q 119.83 20.75 120.17 20.75
  L 123.06 20.75
  Q 123.37 20.75 123.37 21.06
  L 123.36 33.94
  Q 123.36 34.50 122.80 34.50
  L 120.23 34.50
  A 0.51 0.51 0.0 0 1 119.73 33.91
  Q 119.79 33.51 119.73 33.11
  Q 119.62 32.50 119.14 32.90
  C 114.93 36.44 107.39 34.95 106.47 28.94
  C 105.32 21.43 113.34 18.48 119.01 21.92
  Q 119.65 22.31 119.74 21.56
  Z
  M 119.8894 27.6784
  A 4.99 4.01 0.9 0 0 114.9630 23.5905
  A 4.99 4.01 0.9 0 0 109.9106 27.5216
  A 4.99 4.01 0.9 0 0 114.8370 31.6095
  A 4.99 4.01 0.9 0 0 119.8894 27.6784
  Z"
/>
<path fill="#6eab36" d="
  M 190.23 25.30
  C 188.35 24.06 186.33 23.28 184.04 23.88
  C 180.09 24.92 179.34 29.81 183.27 31.13
  Q 186.76 32.30 190.21 30.25
  Q 190.62 30.00 190.93 30.37
  L 192.29 32.03
  A 0.54 0.54 0.0 0 1 192.16 32.83
  C 187.82 35.58 180.80 35.74 177.87 30.98
  C 175.45 27.06 177.76 22.47 181.93 21.07
  Q 187.03 19.36 192.25 22.48
  Q 192.77 22.78 192.41 23.26
  L 190.95 25.18
  Q 190.65 25.58 190.23 25.30
  Z"
/>
<path fill="#6eab36" d="
  M 208.32 33.12
  Q 203.19 36.46 198.36 33.18
  C 195.06 30.94 194.81 25.74 197.53 22.83
  C 200.15 20.02 205.29 19.62 208.39 22.01
  Q 209.15 22.60 209.08 21.64
  Q 209.06 21.41 209.15 21.17
  A 0.69 0.68 10.6 0 1 209.79 20.74
  L 212.26 20.76
  Q 212.75 20.76 212.75 21.26
  L 212.75 34.00
  A 0.51 0.50 -0.6 0 1 212.25 34.50
  L 209.71 34.51
  Q 209.14 34.51 208.99 33.96
  Q 208.93 33.72 208.95 33.48
  Q 208.98 32.68 208.32 33.12
  Z
  M 209.2396 27.6808
  A 4.98 4.02 0.7 0 0 204.3091 23.6003
  A 4.98 4.02 0.7 0 0 199.2804 27.5592
  A 4.98 4.02 0.7 0 0 204.2109 31.6397
  A 4.98 4.02 0.7 0 0 209.2396 27.6808
  Z"
/>
<path fill="#6eab36" d="
  M 223.78 22.72
  C 225.71 20.64 228.39 19.78 231.07 21.01
  Q 231.61 21.26 231.37 21.79
  Q 230.84 22.98 230.78 24.25
  Q 230.76 24.92 230.11 24.74
  C 222.13 22.44 223.35 29.56 223.37 34.13
  Q 223.37 34.50 222.99 34.50
  L 220.00 34.49
  Q 219.75 34.49 219.75 34.25
  L 219.75 21.25
  Q 219.75 20.75 220.25 20.75
  L 222.76 20.75
  Q 223.27 20.76 223.26 21.26
  L 223.24 22.50
  Q 223.22 23.33 223.78 22.72
  Z"
/>
<path fill="#6eab36" d="
  M 237.69 29.26
  C 240.08 32.33 245.04 32.11 248.05 30.45
  Q 248.29 30.32 248.43 30.54
  L 249.75 32.51
  A 0.28 0.27 59.0 0 1 249.66 32.90
  Q 244.30 35.84 238.68 34.11
  C 233.84 32.61 232.03 26.61 235.59 23.11
  Q 238.98 19.78 244.48 20.70
  Q 248.24 21.33 249.88 24.77
  Q 249.96 24.93 250.24 25.52
  Q 251.70 28.60 248.29 28.60
  L 238.01 28.61
  Q 237.19 28.61 237.69 29.26
  Z
  M 237.65 26.17
  L 246.71 26.15
  A 0.14 0.14 0.0 0 0 246.85 26.01
  L 246.85 25.93
  A 4.52 2.38 -0.1 0 0 242.33 23.56
  L 242.03 23.56
  A 4.52 2.38 -0.1 0 0 237.51 25.95
  L 237.51 26.03
  A 0.14 0.14 0.0 0 0 237.65 26.17
  Z"
/>
<path fill="#1da8b5" d="
  M 23.55 27.04
  Q 21.73 29.33 18.99 28.36
  C 17.06 27.68 15.90 25.67 14.76 24.07
  A 0.25 0.25 0.0 0 1 14.93 23.68
  Q 19.53 23.19 23.08 24.92
  Q 24.63 25.68 23.55 27.04
  Z
  M 22.55 26.31
  Q 20.69 26.21 19.05 25.50
  Q 17.84 24.98 18.93 25.71
  Q 20.61 26.84 22.56 26.57
  Q 23.94 26.38 22.55 26.31
  Z"
/>
<path fill="#6eab36" d="
  M 36.02 25.51
  Q 34.42 26.20 33.02 26.32
  Q 29.24 26.65 32.49 24.71
  Q 34.89 23.27 39.89 23.64
  Q 40.44 23.68 40.16 24.16
  C 38.44 27.05 35.83 30.03 32.38 27.97
  Q 30.34 26.76 32.71 26.66
  Q 34.75 26.59 36.12 25.70
  Q 37.18 25.02 36.02 25.51
  Z"
/>
<path fill="#1da8b5" d="
  M 14.30 28.24
  Q 13.47 27.09 11.97 27.38
  Q 11.40 27.49 11.92 27.74
  Q 13.00 28.26 14.30 28.24
  Q 14.40 28.42 14.36 28.64
  Q 14.29 28.99 13.96 29.12
  C 11.08 30.27 8.69 28.59 6.83 26.39
  Q 6.53 26.03 6.98 25.89
  Q 11.82 24.48 14.84 26.97
  A 0.68 0.67 -41.5 0 1 14.77 28.06
  Q 14.58 28.18 14.30 28.24
  Z"
/>
<path fill="#6eab36" d="
  M 48.18 26.27
  C 46.32 28.87 42.28 31.28 39.95 27.87
  Q 39.75 27.57 39.98 27.29
  C 42.06 24.87 45.12 25.21 48.01 25.83
  A 0.28 0.28 0.0 0 1 48.18 26.27
  Z
  M 42.80 27.77
  Q 43.07 27.82 43.27 27.61
  Q 43.57 27.29 43.13 27.27
  Q 42.09 27.21 41.25 27.72
  Q 40.73 28.03 41.33 28.16
  Q 41.89 28.28 42.34 27.90
  Q 42.54 27.73 42.80 27.77
  Z"
/>
<path fill="#1da8b5" d="
  M 21.21 30.63
  Q 21.52 30.75 21.86 30.77
  A 0.40 0.40 0.0 0 1 22.23 31.06
  C 23.46 35.35 18.99 38.13 15.60 39.63
  Q 15.06 39.86 15.15 39.28
  Q 15.61 36.12 16.68 33.59
  C 17.26 32.21 19.45 29.96 21.21 30.63
  Z
  M 19.37 33.68
  Q 19.10 33.91 18.94 34.22
  Q 18.47 35.17 19.23 34.44
  Q 20.56 33.19 21.15 31.57
  Q 21.46 30.74 20.87 31.40
  Q 20.29 32.07 19.89 32.98
  Q 19.71 33.40 19.37 33.68
  Z"
/>
<path fill="#6eab36" d="
  M 33.06 30.75
  C 37.87 29.40 39.40 35.75 39.87 39.48
  Q 39.93 39.97 39.48 39.76
  C 36.25 38.22 31.41 35.31 32.75 31.05
  A 0.47 0.43 -86.9 0 1 33.06 30.75
  Z
  M 33.78 31.72
  Q 34.78 32.97 35.64 34.50
  Q 35.75 34.69 35.94 34.58
  L 36.15 34.44
  A 0.06 0.06 0.0 0 0 36.17 34.35
  Q 35.04 32.99 34.16 31.15
  Q 34.13 31.10 34.07 31.13
  L 33.86 31.27
  Q 33.57 31.45 33.78 31.72
  Z"
/>
<path fill="#6eab36" d="
  M 39.90 31.89
  C 42.34 29.76 45.40 32.71 46.89 34.65
  Q 47.25 35.11 46.68 35.24
  Q 41.75 36.40 39.76 32.66
  Q 39.52 32.22 39.90 31.89
  Z
  M 41.89 33.05
  Q 42.11 33.38 42.47 33.45
  Q 42.83 33.51 42.64 33.20
  Q 41.99 32.14 40.87 32.28
  Q 40.40 32.35 40.78 32.63
  Q 41.01 32.80 41.31 32.77
  A 0.61 0.60 -18.8 0 1 41.89 33.05
  Z"
/>
<path fill="#1da8b5" d="
  M 8.16 35.17
  A 0.19 0.19 0.0 0 1 8.05 34.88
  C 9.31 32.92 12.66 29.72 14.99 31.83
  A 0.77 0.76 36.2 0 1 15.14 32.79
  Q 13.01 36.49 8.16 35.17
  Z"
/>
<path fill="#6eab36" d="
  M 32.61 38.34
  C 35.56 38.94 35.67 42.74 35.08 45.10
  Q 34.94 45.64 34.48 45.32
  Q 31.22 43.01 31.11 39.61
  A 1.25 1.25 0.0 0 1 32.61 38.34
  Z"
/>
<path fill="#1da8b5" d="
  M 23.78 39.05
  C 24.19 41.58 22.50 43.95 20.50 45.35
  Q 20.08 45.64 19.96 45.15
  C 19.33 42.68 19.55 37.86 23.22 38.48
  Q 23.70 38.57 23.78 39.05
  Z"
/>
</svg>
