<?xml version="1.0" encoding="UTF-8" standalone="no"?>
<!DOCTYPE svg PUBLIC "-//W3C//DTD SVG 1.1//EN" "http://www.w3.org/Graphics/SVG/1.1/DTD/svg11.dtd">
<svg xmlns="http://www.w3.org/2000/svg" version="1.1" viewBox="0.00 0.00 55.00 50.00">
<path fill="#1da8b5" d="
  M 25.01 6.41
  Q 25.50 5.73 25.75 6.53
  C 26.43 8.72 27.46 13.38 24.36 14.21
  Q 23.76 14.37 23.40 13.85
  Q 21.58 11.16 25.01 6.41
  Z"
/>
<path fill="#6aaa33" d="
  M 29.71 6.21
  Q 32.74 9.56 31.99 13.12
  A 1.41 1.40 -65.0 0 1 29.76 13.94
  C 27.78 12.40 28.65 8.37 29.30 6.30
  Q 29.42 5.89 29.71 6.21
  Z"
/>
<path fill="#6aaa33" d="
  M 33.68 10.39
  Q 34.42 7.59 36.84 6.21
  Q 37.26 5.96 37.29 6.45
  C 37.43 8.18 36.95 12.02 34.49 11.64
  A 1.01 1.00 12.2 0 1 33.68 10.39
  Z"
/>
<path fill="#1da8b5" d="
  M 19.12 6.84
  Q 21.02 8.47 21.28 10.58
  A 1.09 1.09 0.0 0 1 19.57 11.60
  Q 17.87 10.41 17.66 7.58
  Q 17.49 5.44 19.12 6.84
  Z"
/>
<path fill="#1da8b5" d="
  M 14.09 10.63
  Q 14.05 10.39 14.26 10.50
  Q 17.66 12.35 21.14 13.84
  Q 23.55 14.87 24.51 17.63
  Q 24.73 18.29 24.09 18.54
  C 18.87 20.62 14.98 15.48 14.09 10.63
  Z
  M 23.0479 17.8773
  A 2.33 0.24 29.5 0 0 21.1382 16.5211
  A 2.33 0.24 29.5 0 0 18.9921 15.5827
  A 2.33 0.24 29.5 0 0 20.9018 16.9389
  A 2.33 0.24 29.5 0 0 23.0479 17.8773
  Z"
/>
<path fill="#6aaa33" d="
  M 30.51 17.48
  C 32.47 12.64 37.21 13.39 40.50 10.54
  Q 41.03 10.08 40.88 10.76
  C 39.72 15.86 36.59 20.08 31.11 18.69
  A 0.90 0.90 0.0 0 1 30.51 17.48
  Z"
/>
<path fill="#007e85" d="
  M 26.29 17.96
  L 25.74 16.15
  A 1.25 1.25 0.0 0 1 26.06 14.90
  L 26.64 14.33
  A 1.25 1.25 0.0 0 1 28.55 14.50
  L 29.09 15.28
  A 1.25 1.25 0.0 0 1 29.24 16.41
  L 28.66 18.02
  A 1.25 1.25 0.0 0 1 26.29 17.96
  Z"
/>
<path fill="#1da8b5" d="
  M 14.34 16.65
  L 15.95 17.86
  A 0.37 0.37 0.0 0 1 15.80 18.52
  L 12.85 19.03
  A 0.37 0.37 0.0 0 1 12.54 18.94
  L 10.49 17.08
  A 0.37 0.37 0.0 0 1 10.75 16.44
  L 14.14 16.58
  A 0.37 0.37 0.0 0 1 14.34 16.65
  Z"
/>
<path fill="#6aaa33" d="
  M 40.00 18.69
  Q 39.68 18.76 39.38 18.64
  A 0.64 0.64 0.0 0 1 39.28 17.50
  Q 41.60 16.06 44.35 16.49
  Q 44.72 16.54 44.53 16.87
  Q 42.90 19.67 40.45 18.73
  Q 40.23 18.64 40.00 18.69
  Z"
/>
<path fill="#007e85" d="
  M 32.57 22.29
  C 29.76 23.22 28.48 26.06 29.67 28.78
  C 30.47 30.62 31.22 32.74 30.49 34.76
  Q 28.72 39.69 28.13 44.81
  Q 28.08 45.29 27.66 45.52
  Q 27.52 45.61 27.36 45.57
  Q 26.98 45.48 26.94 45.10
  Q 26.33 40.04 24.82 35.85
  C 23.92 33.38 24.07 31.43 25.18 29.18
  C 26.50 26.52 25.51 23.38 22.62 22.40
  Q 18.96 21.15 13.75 20.72
  Q 13.68 20.71 13.69 20.65
  L 13.71 20.29
  Q 13.73 20.04 13.98 20.06
  Q 19.07 20.45 23.88 20.26
  Q 27.99 20.09 32.13 20.29
  Q 36.59 20.49 40.55 20.01
  Q 42.36 19.79 40.72 20.59
  Q 39.89 21.00 38.98 21.06
  Q 35.65 21.27 32.57 22.29
  Z"
/>
<path fill="#1da8b5" d="
  M 11.98 23.53
  Q 8.73 24.66 6.23 21.59
  Q 5.87 21.16 6.41 20.99
  C 8.12 20.46 12.27 20.14 12.47 22.78
  A 0.74 0.73 78.8 0 1 11.98 23.53
  Z"
/>
<path fill="#6aaa33" d="
  M 48.58 22.03
  L 45.79 23.84
  A 0.72 0.72 0.0 0 1 45.27 23.95
  L 42.95 23.53
  A 0.72 0.72 0.0 0 1 42.54 22.34
  L 43.80 20.95
  A 0.72 0.72 0.0 0 1 44.33 20.71
  L 48.19 20.70
  A 0.72 0.72 0.0 0 1 48.58 22.03
  Z"
/>
<path fill="#1da8b5" d="
  M 23.55 27.04
  Q 21.73 29.33 18.99 28.36
  C 17.10 27.69 15.83 25.63 14.76 24.05
  A 0.24 0.24 0.0 0 1 14.93 23.68
  Q 19.53 23.19 23.07 24.91
  Q 24.63 25.68 23.55 27.04
  Z
  M 22.52 26.33
  Q 20.94 26.30 19.04 25.50
  Q 17.82 24.99 18.93 25.70
  Q 20.81 26.91 22.54 26.60
  Q 23.91 26.35 22.52 26.33
  Z"
/>
<path fill="#6aaa33" d="
  M 36.07 25.61
  L 31.65 26.49
  A 0.46 0.46 0.0 0 1 31.12 25.92
  Q 31.33 25.16 32.04 24.84
  Q 35.55 23.23 39.89 23.63
  Q 40.44 23.68 40.16 24.16
  C 38.49 27.00 35.93 29.97 32.45 28.01
  Q 30.26 26.77 32.78 26.65
  Q 34.68 26.56 36.12 25.73
  Q 36.48 25.53 36.07 25.61
  Z"
/>
<path fill="#1da8b5" d="
  M 14.30 28.24
  Q 13.47 27.09 11.97 27.38
  Q 11.40 27.49 11.92 27.74
  Q 13.00 28.26 14.30 28.24
  Q 14.40 28.42 14.36 28.64
  Q 14.29 28.99 13.96 29.12
  C 11.07 30.26 8.69 28.59 6.83 26.38
  Q 6.54 26.03 6.97 25.91
  Q 12.20 24.37 15.08 27.27
  A 0.32 0.30 -58.1 0 1 15.15 27.61
  Q 14.96 28.10 14.30 28.24
  Z"
/>
<path fill="#6aaa33" d="
  M 40.13 28.08
  Q 40.02 27.97 39.94 27.86
  Q 39.76 27.59 39.96 27.34
  C 41.98 24.81 45.12 25.26 48.01 25.83
  A 0.29 0.29 0.0 0 1 48.19 26.28
  C 46.73 28.33 42.70 31.16 40.57 28.55
  Q 40.36 28.30 40.13 28.08
  Z
  M 43.5077 27.3498
  A 1.31 0.32 -14.6 0 0 42.1593 27.3703
  A 1.31 0.32 -14.6 0 0 40.9723 28.0102
  A 1.31 0.32 -14.6 0 0 42.3207 27.9897
  A 1.31 0.32 -14.6 0 0 43.5077 27.3498
  Z"
/>
<path fill="#1da8b5" d="
  M 21.32 30.67
  Q 21.52 30.75 21.73 30.75
  Q 22.18 30.75 22.29 31.20
  C 23.30 35.43 18.99 38.14 15.64 39.59
  Q 14.94 39.90 15.12 39.16
  C 15.88 35.98 16.09 32.71 19.20 30.88
  Q 20.29 30.24 21.32 30.67
  Z
  M 19.40 33.66
  Q 19.12 33.90 18.95 34.23
  Q 18.47 35.16 19.23 34.44
  Q 20.57 33.19 21.15 31.56
  Q 21.45 30.71 20.87 31.40
  Q 20.25 32.16 19.83 33.08
  Q 19.68 33.42 19.40 33.66
  Z"
/>
<path fill="#6aaa33" d="
  M 33.05 30.75
  C 37.88 29.41 39.41 35.75 39.87 39.51
  Q 39.93 39.96 39.52 39.76
  C 36.23 38.19 31.39 35.32 32.75 31.03
  A 0.43 0.42 1.0 0 1 33.05 30.75
  Z
  M 34.64 32.84
  Q 35.02 33.77 35.71 34.39
  Q 36.39 35.00 35.94 34.21
  Q 35.10 32.77 34.23 31.41
  Q 34.18 31.33 34.09 31.28
  Q 33.97 31.21 33.83 31.25
  Q 33.52 31.32 33.69 31.60
  Q 33.84 31.85 34.06 32.04
  Q 34.45 32.37 34.64 32.84
  Z"
/>
<path fill="#6aaa33" d="
  M 39.92 31.87
  C 42.35 29.78 45.41 32.72 46.89 34.65
  Q 47.25 35.11 46.68 35.24
  Q 41.75 36.40 39.77 32.68
  Q 39.52 32.22 39.92 31.87
  Z
  M 41.84 32.94
  Q 42.02 33.23 42.34 33.37
  Q 42.92 33.64 42.57 33.10
  Q 41.92 32.09 40.79 32.31
  Q 40.46 32.37 40.74 32.56
  Q 41.00 32.75 41.29 32.70
  Q 41.65 32.64 41.84 32.94
  Z"
/>
<path fill="#1da8b5" d="
  M 8.16 35.17
  A 0.20 0.19 23.5 0 1 8.04 34.88
  C 9.26 32.94 12.66 29.74 14.99 31.82
  A 0.78 0.77 -54.1 0 1 15.14 32.79
  Q 13.01 36.49 8.16 35.17
  Z"
/>
<path fill="#6aaa33" d="
  M 32.61 38.34
  C 35.56 38.93 35.67 42.75 35.07 45.11
  Q 34.94 45.64 34.49 45.32
  Q 31.22 43.02 31.11 39.61
  A 1.25 1.25 0.0 0 1 32.61 38.34
  Z"
/>
<path fill="#1da8b5" d="
  M 23.77 39.00
  C 24.20 41.56 22.52 43.95 20.50 45.35
  Q 20.08 45.64 19.95 45.14
  C 19.33 42.65 19.56 37.82 23.27 38.49
  Q 23.70 38.57 23.77 39.00
  Z"
/>
</svg>
